<?xml version="1.0" standalone="no"?><!DOCTYPE svg PUBLIC "-//W3C//DTD SVG 1.1//EN" "http://www.w3.org/Graphics/SVG/1.1/DTD/svg11.dtd"><svg t="1581670064181" class="icon" viewBox="0 0 1024 1024" version="1.1" xmlns="http://www.w3.org/2000/svg" p-id="3945" xmlns:xlink="http://www.w3.org/1999/xlink" width="200" height="200"><defs><style type="text/css"></style></defs><path d="M371.2 352h70.4c19.2 0 32-12.8 32-32s-12.8-32-32-32H371.2C262.4 288 172.8 384 172.8 512c0 121.6 89.6 224 198.4 224h70.4c19.2 0 32-12.8 32-32s-12.8-32-32-32H371.2c-76.8 0-134.4-70.4-134.4-160s64-160 134.4-160zM819.2 288c-19.2 0-32 12.8-32 32v275.2L601.6 313.6c-6.4-12.8-19.2-19.2-32-19.2h-6.4c-19.2-6.4-32 12.8-32 25.6v384c0 19.2 12.8 32 32 32s32-12.8 32-32V409.6l192 300.8c6.4 12.8 12.8 25.6 32 25.6 6.4 0 12.8 0 19.2-6.4 6.4-6.4 12.8-12.8 12.8-25.6V320c0-12.8-12.8-32-32-32z" fill="#cdcdcd" p-id="3946"></path><path d="M768 64c108.8 0 192 83.2 192 192v512c0 108.8-83.2 192-192 192H256c-108.8 0-192-83.2-192-192V256c0-108.8 83.2-192 192-192h512m0-64H256C115.2 0 0 115.2 0 256v512c0 140.8 115.2 256 256 256h512c140.8 0 256-115.2 256-256V256c0-140.8-115.2-256-256-256z" fill="#cdcdcd" p-id="3947"></path></svg>