<?xml version="1.0" standalone="no"?><!DOCTYPE svg PUBLIC "-//W3C//DTD SVG 1.1//EN" "http://www.w3.org/Graphics/SVG/1.1/DTD/svg11.dtd"><svg t="1581670085242" class="icon" viewBox="0 0 1024 1024" version="1.1" xmlns="http://www.w3.org/2000/svg" p-id="4260" xmlns:xlink="http://www.w3.org/1999/xlink" width="200" height="200"><defs><style type="text/css"></style></defs><path d="M716.8 76.8a230.4 230.4 0 0 1 230.4 230.4v409.6a230.4 230.4 0 0 1-230.4 230.4H307.2a230.4 230.4 0 0 1-230.4-230.4V307.2a230.4 230.4 0 0 1 230.4-230.4h409.6m0-76.8H307.2A307.2 307.2 0 0 0 0 307.2v409.6a307.2 307.2 0 0 0 307.2 307.2h409.6a307.2 307.2 0 0 0 307.2-307.2V307.2A307.2 307.2 0 0 0 716.8 0z" p-id="4261" fill="#cdcdcd"></path><path d="M176.128 292.608h316.416v61.44H248.064v121.6h230.4V537.6h-230.4v132.864h256v61.44H176.128zM847.872 535.296v196.096h-70.144v-189.952c0-51.2-24.064-76.8-71.936-76.8a64 64 0 0 0-45.312 18.432 86.272 86.272 0 0 0-25.6 58.368v191.232h-70.4V413.696h70.144v36.864a128 128 0 0 1 41.728-33.792 116.736 116.736 0 0 1 51.2-11.776c80.384 0 120.32 43.52 120.32 130.304z" p-id="4262" fill="#cdcdcd"></path></svg>